<?xml version="1.0" encoding="UTF-8"?>
<!DOCTYPE svg PUBLIC "-//W3C//DTD SVG 1.1//EN" "http://www.w3.org/Graphics/SVG/1.1/DTD/svg11.dtd">
<!-- Creator: CorelDRAW 2019 (64-Bit) -->
<svg xmlns="http://www.w3.org/2000/svg" xml:space="preserve" width="13.5466mm" height="13.5466mm" version="1.1" style="shape-rendering:geometricPrecision; text-rendering:geometricPrecision; image-rendering:optimizeQuality; fill-rule:evenodd; clip-rule:evenodd"
viewBox="0 0 1354.66 1354.66"
 xmlns:xlink="http://www.w3.org/1999/xlink">
 <defs>
  <style type="text/css">
   <![CDATA[
    .fil0 {fill:black}
   ]]>
  </style>
 </defs>
 <g id="Capa_x0020_1">
  <metadata id="CorelCorpID_0Corel-Layer"/>
  <path class="fil0" d="M409.8 626.56c-40.64,18 -48.17,21.65 -83.13,49.9 -2.18,1.76 -3.7,3.48 -5.86,5.23l-27.82 28.4c-3.27,4.14 -6.52,7.79 -10.04,12.17 -19.27,23.99 -37.45,53.96 -50.87,83.06 -37.43,81.17 -52.41,172.01 -45.92,262.78 0.63,8.76 2.24,33.7 4.63,40.69l598.64 0.34c6.32,-62.28 9.3,-102.64 -0.59,-166.37 -10.98,-70.67 -34.89,-137.31 -72.76,-194.22 -34.91,-52.48 -85.47,-100.48 -145.9,-121.81l3.22 -2.5c1.48,-0.76 1.96,-0.85 3.49,-1.67 9.49,-5.1 23.26,-14.41 31.2,-21.34 2.51,-2.2 3.42,-2.93 5.6,-4.76l15.58 -16.24c3.33,-4.03 6.51,-7.52 9.67,-11.77 6,-8.11 11.34,-16.63 16.61,-26.3 37.83,-69.33 29.89,-164.93 -21.84,-226.96 -35.7,-42.83 -85.24,-69.45 -143.25,-69.65 -96.28,-0.33 -167.4,72.85 -184.98,154.46 -17.14,79.59 13.76,165.52 77.76,210.05l26.56 16.51zm425.63 65.69l-0.94 0.64c-9.13,5.18 -19.06,6.31 -40.86,20.63 -13.93,9.16 -25.07,17.69 -36.01,27.35l19.52 36.13c6.17,12.61 11.9,25.32 17.27,38.97 23.1,58.6 36.14,122.02 38.83,186.31 1.91,45.74 -0.96,63.37 -4.93,106.85l335.46 0c2.04,-1.54 1.82,-4.9 2.18,-7.79 2.68,-21.8 4.1,-41.21 4.01,-63.55 -0.26,-68.2 -13.55,-130.87 -41,-190.85 -30.46,-66.55 -84.14,-128.55 -154.21,-154.38 2.59,-2.18 7.86,-4.42 11.18,-6.49 9.49,-5.92 24.36,-16.04 31.29,-24.2 2.57,-3.02 3.74,-3.15 8.69,-9.08 3.06,-3.66 5.39,-6.47 8.29,-10.2 5.33,-6.85 9.78,-14.1 14.47,-22.53 18.35,-33.02 25.91,-80.14 16.69,-122.45 -15.45,-70.94 -76.26,-133.85 -159.82,-133.92 -126.98,-0.11 -203.28,142.57 -144.16,255.19 8.94,17.01 19.77,31.16 30.96,42.3 21.75,21.66 35.44,24.94 43.09,31.07z"/>
 </g>
</svg>
