<?xml version="1.0" encoding="UTF-8"?>
<!DOCTYPE svg PUBLIC "-//W3C//DTD SVG 1.1//EN" "http://www.w3.org/Graphics/SVG/1.1/DTD/svg11.dtd">
<!-- Creator: CorelDRAW 2019 (64-Bit) -->
<svg xmlns="http://www.w3.org/2000/svg" xml:space="preserve" width="13.5466mm" height="13.5466mm" version="1.1" style="shape-rendering:geometricPrecision; text-rendering:geometricPrecision; image-rendering:optimizeQuality; fill-rule:evenodd; clip-rule:evenodd"
viewBox="0 0 1354.66 1354.66"
 xmlns:xlink="http://www.w3.org/1999/xlink">
 <defs>
  <style type="text/css">
   <![CDATA[
    .fil0 {fill:#010101}
   ]]>
  </style>
 </defs>
 <g id="Capa_x0020_1">
  <metadata id="CorelCorpID_0Corel-Layer"/>
  <path class="fil0" d="M852.8 416.22c-0.8,10.3 -0.09,38.06 -0.09,51.48 0,4.32 -1.22,12.74 1.4,15.96 39,47.87 5.42,119.46 -57.7,118.5 -61.19,-0.94 -92.84,-74.98 -52.16,-120.63 4.02,-4.51 3.04,-1.11 3.04,-13.83l0.01 -52.96 -148.31 -0.26 -0.01 60.32c-0.03,4.17 0.26,4.2 2.35,6.46 10.59,11.49 18.74,31.19 17.16,52.48 -2.73,36.73 -33.42,66.68 -71.99,66.85 -38.66,0.17 -69.47,-30.11 -72.38,-66.34 -1.73,-21.43 6.54,-41.09 16.71,-52.68 3.92,-4.47 2.74,-2.5 2.74,-14.46 0,-13.25 0.7,-42.48 -0.14,-52.36 -27.4,-0.43 -55.6,0.94 -83.09,1.18 -15.52,0.13 -24.38,0.51 -33.34,9 -8.53,8.09 -9.59,17.24 -10.92,31.54 -4.81,51.68 -9.93,102.82 -14.72,154.47 -9.57,103.13 -19.77,206.29 -29.51,309.45l-22.09 231.77c-1.49,15.26 0.49,23.77 8.82,32.09 8.94,8.94 16.9,9.55 32.8,9.55l677.85 0c11.54,0.02 22.61,-2.9 29.35,-12.41 8.55,-12.05 7.16,-18.44 5.65,-34.73l-66.4 -696.51c-1.41,-14.53 -5.33,-22.06 -14.18,-28.24 -10.62,-7.41 -21.9,-5.85 -36.35,-5.85 -6.75,0 -79.86,-0.42 -84.5,0.16zm-283.42 82.94c-0.72,-47.8 -0.03,-98.62 -0.03,-146.99 0,-15.68 -0.77,-33.46 0.33,-48.88 3.67,-51.79 46.94,-94.32 101.19,-94.69 54.82,-0.38 97.91,42.24 102.34,93.52 1.35,15.7 0.43,77.33 0.43,97.79 0,16.31 0,32.62 0,48.93 0,16.11 0.51,33.07 -0.07,49.08 -3.67,1.81 -8.77,7.82 -11.08,11.88 -9.92,17.38 -5.43,38.17 8.03,49.82 33.76,29.22 82.12,-10.79 60.61,-49.41 -4.87,-8.74 -9.34,-8.9 -9.68,-13.58 -0.51,-6.91 0.03,-16.42 0.03,-23.63l0 -138.51c0,-14.82 0.6,-29.92 -1.4,-44.36 -3.72,-26.87 -13.68,-48.17 -26.26,-66.22 -57.96,-83.15 -184.19,-84.65 -243.92,-0.97 -34.62,48.49 -28.39,89.86 -28.39,156.93 0,30.65 0,61.3 0,91.95 0,7.62 0.2,15.46 0.05,23.04 -0.11,5.49 -2.99,2.75 -9.86,12.89 -6.63,9.78 -8.96,24.58 -3.63,37.28 16.46,39.23 75.11,28.18 76.17,-14.25 0.35,-13.95 -7.49,-27.17 -14.86,-31.62zm208.16 310.26l-1.51 49.01c0.28,6.1 -10.21,14.28 -33.9,23.3 -8.62,0.07 -43.42,7.51 -48.53,5.07 -32.23,1.71 -63.38,1.26 -95.86,1.29 -34.31,0.02 -62.43,-5.62 -78.68,19.29 -6.51,9.99 -38.05,131.83 -42.64,151.79 39.61,0.56 82.21,4.27 108.98,-27.45 28.81,-34.14 16.4,-62.86 37.25,-66.44 25.8,-4.43 97.06,9.08 155.2,-15.77 31.58,-13.49 57.77,-36.27 70.27,-67.73 14.24,-35.86 11.79,-82.23 -9.82,-108.68 -21.35,-26.13 -51.05,-38.42 -96.76,-41.65 -42.7,-3.01 -93.25,-0.66 -136.91,-0.7 -22.89,-0.03 -37.61,7.38 -45.67,23.27 -4.02,7.9 -13.55,43.95 -15.18,54.19 44.66,-0.15 89.34,-0.03 134,-0.01 35.81,0.01 67.71,-0.42 97.3,-20.13 3.85,-2.57 5.27,-4.61 9.84,-7.76l-7.38 29.11z"/>
 </g>
</svg>
