<?xml version="1.0" encoding="UTF-8"?>
<!DOCTYPE svg PUBLIC "-//W3C//DTD SVG 1.1//EN" "http://www.w3.org/Graphics/SVG/1.1/DTD/svg11.dtd">
<!-- Creator: CorelDRAW 2019 (64-Bit) -->
<svg xmlns="http://www.w3.org/2000/svg" xml:space="preserve" width="13.5466mm" height="13.5466mm" version="1.1" style="shape-rendering:geometricPrecision; text-rendering:geometricPrecision; image-rendering:optimizeQuality; fill-rule:evenodd; clip-rule:evenodd"
viewBox="0 0 1354.66 1354.66"
 xmlns:xlink="http://www.w3.org/1999/xlink">
 <defs>
  <style type="text/css">
   <![CDATA[
    .fil0 {fill:#010101}
   ]]>
  </style>
 </defs>
 <g id="Capa_x0020_1">
  <metadata id="CorelCorpID_0Corel-Layer"/>
  <path class="fil0" d="M151.27 673.73c0,14.25 0,28.5 0,42.74 20.83,56.04 12.84,71.49 151.74,76.01 -1.95,90.91 -0.4,183.59 -0.45,274.7 -0.06,107.38 68.49,126.82 176.1,115.18 0.9,-69.33 0.23,-139.12 0.18,-208.49 -0.06,-112.16 -5.38,-106.71 106.67,-106.65 159.39,0.08 97.67,-18.51 112.08,316.29 61.6,1.19 105.04,-0.17 166.78,-0.17 182.88,0.44 189.68,-5.27 189.87,-198.08 0.06,-63.23 0.76,-127.07 -0.24,-190.24 35.54,-7.56 64.32,2.5 97.5,-13.66 30.71,-14.94 42.73,-31.98 51.89,-58.14l0 -53.51c-23.95,-36.82 -30.39,-43.3 -57.67,-71.12l-321.37 -321.39c-22.94,-22.78 -41.42,-41.8 -64.23,-64.62 -97.37,-97.39 -151.99,-11.36 -233.91,72.12l-321.49 321.46c-58.78,57.46 -31.64,43.36 -53.45,67.57z"/>
 </g>
</svg>
