<?xml version="1.0" encoding="UTF-8"?>
<!DOCTYPE svg PUBLIC "-//W3C//DTD SVG 1.1//EN" "http://www.w3.org/Graphics/SVG/1.1/DTD/svg11.dtd">
<!-- Creator: CorelDRAW 2019 (64-Bit) -->
<svg xmlns="http://www.w3.org/2000/svg" xml:space="preserve" width="13.5466mm" height="13.5466mm" version="1.1" style="shape-rendering:geometricPrecision; text-rendering:geometricPrecision; image-rendering:optimizeQuality; fill-rule:evenodd; clip-rule:evenodd"
viewBox="0 0 1354.66 1354.66"
 xmlns:xlink="http://www.w3.org/1999/xlink">
 <defs>
  <style type="text/css">
   <![CDATA[
    .fil0 {fill:#010101}
   ]]>
  </style>
 </defs>
 <g id="Capa_x0020_1">
  <metadata id="CorelCorpID_0Corel-Layer"/>
  <path class="fil0" d="M580.92 441.67c-26.36,16.18 -52.88,35.54 -71.06,29.84 -98.47,-30.87 -66.72,-60.97 -125.32,38.5 -60.44,102.57 -35.93,58.63 41.3,135.16l0.02 49.84c-0.73,20.64 -4.48,19.91 -29.11,38.41 -15.3,11.48 -39.43,27.48 -46.79,42.05 1.45,14.9 64.16,123.54 75.43,134.42 24.97,2.77 59.66,-18 81.74,-26.34 25.63,-9.68 18.96,-0.07 74.22,27.95 2.43,24.39 5.86,47.18 9.15,71.19 6.23,45.34 26.6,31.23 140.41,31.23 32.23,0 29.96,-8.46 33.94,-37.89 10.79,-79.84 -0.16,-55.93 42.98,-83.13 12.84,-8.09 19.01,-16.02 36.12,-10.81 90.44,27.55 67.68,64.88 124.51,-35.43 12.11,-21.36 35.8,-51.97 35.48,-76.2 -21.9,-21.14 -52.5,-39.09 -75.32,-62.39l0.66 -62.9c11.04,-11.84 22.23,-20.03 36.12,-30.55 12.62,-9.57 30.29,-22.05 39.3,-30.61 -1.12,-27.05 -70.13,-137.71 -76.09,-140.19 -24.07,-2.16 -57.81,18.63 -80.67,26.91 -21.08,7.62 -21.11,3.05 -38.03,-7.99 -11.39,-7.43 -24.52,-12.19 -36.08,-21.9 -3.03,-19.68 -7.4,-71.89 -12.66,-86.36 -8.15,-22.44 -37.78,-14.43 -84.17,-14.43 -105.98,0 -80.91,-5.25 -96.08,101.62zm69.83 121.35c-157.5,42.06 -92.03,264.92 55.77,228.48 53.22,-13.12 103.57,-73.94 85.12,-144.15 -14.4,-54.84 -72.31,-102.65 -140.89,-84.33z"/>
 </g>
</svg>
