<?xml version="1.0" encoding="UTF-8"?>
<!DOCTYPE svg PUBLIC "-//W3C//DTD SVG 1.1//EN" "http://www.w3.org/Graphics/SVG/1.1/DTD/svg11.dtd">
<!-- Creator: CorelDRAW 2019 (64-Bit) -->
<svg xmlns="http://www.w3.org/2000/svg" xml:space="preserve" width="13.5466mm" height="13.5466mm" version="1.1" style="shape-rendering:geometricPrecision; text-rendering:geometricPrecision; image-rendering:optimizeQuality; fill-rule:evenodd; clip-rule:evenodd"
viewBox="0 0 1354.66 1354.66"
 xmlns:xlink="http://www.w3.org/1999/xlink">
 <defs>
  <style type="text/css">
   <![CDATA[
    .fil0 {fill:#010101}
   ]]>
  </style>
 </defs>
 <g id="Capa_x0020_1">
  <metadata id="CorelCorpID_0Corel-Layer"/>
  <path class="fil0" d="M381 404.08l0 502.62c40.01,34.75 12.12,15.44 70.11,45.03l149.54 77.73c22.58,11.73 50.65,35.4 77.42,27.17 8.92,-23.32 4.16,-109.63 4.01,-142.59 33.96,-1.52 69.59,-0.52 103.73,-0.51 32.91,0 69.64,6.3 79.08,-20.93 5.96,-17.2 2.71,-168.33 2.4,-198.62l-67.18 0.21c-1.96,40.34 9.02,121.99 -7.99,148.57 -20.67,5.54 -86.56,3.86 -110.07,1.95 3.36,-87.27 3.02,-190.73 0.63,-278.24 -0.76,-27.74 -5.8,-32.27 -27.06,-43.21 -18.31,-9.42 -126.72,-62.07 -137.65,-73.46 64.31,1.84 223.13,-8.54 274.21,2.57 12.03,18.31 7.6,53.16 7.42,81.08l67.95 0.19c-0.45,-41.41 13.8,-134.35 -19.56,-148.37 -17.57,-7.39 -349.76,-2.88 -409.23,-3.25 -46.3,-0.29 -32.69,0.26 -57.76,22.06zm693.96 220.41l0 -23.77c-37.24,-40.93 -75.91,-84.09 -117.1,-121.17 -29.85,-26.88 -72.08,-5.94 -60.07,32.07 5.34,16.91 40.95,39.66 55.34,63.04 -44.21,0.13 -88.41,0.08 -132.62,0.08 -41.49,0 -92.83,-8.59 -92.38,38.19 0.6,61.48 119.82,27.29 225.9,36.4 -11.9,12.63 -53.09,46.98 -56.99,64.3 -9.32,41.41 33.03,56.51 59.64,31.75 41.47,-38.59 81.78,-84.86 118.28,-120.89z"/>
 </g>
</svg>
