<?xml version="1.0" encoding="UTF-8"?>
<!DOCTYPE svg PUBLIC "-//W3C//DTD SVG 1.1//EN" "http://www.w3.org/Graphics/SVG/1.1/DTD/svg11.dtd">
<!-- Creator: CorelDRAW 2019 (64-Bit) -->
<svg xmlns="http://www.w3.org/2000/svg" xml:space="preserve" width="13.5466mm" height="13.5466mm" version="1.1" style="shape-rendering:geometricPrecision; text-rendering:geometricPrecision; image-rendering:optimizeQuality; fill-rule:evenodd; clip-rule:evenodd"
viewBox="0 0 1354.66 1354.66"
 xmlns:xlink="http://www.w3.org/1999/xlink">
 <defs>
  <style type="text/css">
   <![CDATA[
    .fil0 {fill:black}
   ]]>
  </style>
 </defs>
 <g id="Capa_x0020_1">
  <metadata id="CorelCorpID_0Corel-Layer"/>
  <path class="fil0" d="M729.89 1039.88l113.75 138.59c5.95,7.52 16.49,22.16 31.09,11.67 10.52,-7.56 6.09,-29.69 5.35,-44.46l-6.98 -145.98c-0.64,-13.06 -5.5,-36.27 2.03,-45.34 2.24,-2.7 10.33,-10.62 13.05,-13.25 210.52,-203.77 13.86,-534.97 -351.51,-516 -125.95,6.55 -220.14,52.74 -289.58,115.43 -63,56.87 -124.84,173.03 -77.41,295.25 35.81,92.3 114.68,159.41 210.26,196.55 51.36,19.95 107.85,31.72 170.68,33.54 32.29,0.94 64.32,-1.34 95.15,-6.24 31.08,-4.94 74.17,-18.52 84.12,-19.76zm292.18 -291.51c38.81,-20.83 85.45,-58.53 107.31,-84.14 141.93,-166.28 60.37,-367.14 -116.68,-452.69 -116.93,-56.5 -267.04,-69.57 -397.22,-19.7 -91.49,35.05 -190.03,113.68 -225.55,210.94 46.25,-16.28 104.76,-28.48 157.12,-28.48 264.15,0 478.28,149.66 478.28,334.28 0,13.39 -1.06,27.51 -3.26,39.79zm-286.09 -40.93c-65.79,19.31 -36.88,117.59 28.6,99.02 64.03,-18.16 37.65,-118.47 -28.6,-99.02zm-188.93 1.14c-64.63,22.69 -31.47,116.13 31.53,97.86 64.32,-18.65 36.11,-121.6 -31.53,-97.86zm-186.05 -0.29c-66.6,24.24 -30.28,117.86 31.51,97.85 24.51,-7.94 43.61,-35.23 33.8,-65.05 -7.42,-22.52 -32.6,-44.71 -65.31,-32.8z"/>
 </g>
</svg>
