<?xml version="1.0" encoding="UTF-8"?>
<!DOCTYPE svg PUBLIC "-//W3C//DTD SVG 1.1//EN" "http://www.w3.org/Graphics/SVG/1.1/DTD/svg11.dtd">
<!-- Creator: CorelDRAW 2019 (64-Bit) -->
<svg xmlns="http://www.w3.org/2000/svg" xml:space="preserve" width="13.5466mm" height="13.5466mm" version="1.1" style="shape-rendering:geometricPrecision; text-rendering:geometricPrecision; image-rendering:optimizeQuality; fill-rule:evenodd; clip-rule:evenodd"
viewBox="0 0 1354.66 1354.66"
 xmlns:xlink="http://www.w3.org/1999/xlink">
 <defs>
  <style type="text/css">
   <![CDATA[
    .fil0 {fill:#010101}
   ]]>
  </style>
 </defs>
 <g id="Capa_x0020_1">
  <metadata id="CorelCorpID_0Corel-Layer"/>
  <path class="fil0" d="M721.19 1078.38c-44.23,-30.44 -57.01,13.46 -119.01,-11 -28.17,-11.12 -28.34,-10.38 -42.08,-23.69 -19.67,-19.06 -45.28,-5.5 -38.93,20.84 7.43,30.77 79.58,96.65 164.13,58.13 19.7,-8.98 35.48,-13.36 35.89,-44.28zm139.47 -698.88c-14.89,7.93 -31.88,12.43 -49.93,12.43 -33.96,0 -64.23,-15.97 -83.69,-40.76 -83.51,1.83 -147.44,53.21 -190.9,113.75 -70.26,97.84 -61.01,199.5 -156.95,303.27 -50.56,54.69 -99.2,75.91 0.59,144.02 134.31,91.69 401.78,149.58 562.37,122.36 38.14,-6.47 100.42,-10.95 89.51,-70.64 -11.79,-64.46 -56.29,-77.49 -36.68,-261.83 5.17,-48.59 2.25,-94.12 -5.52,-138.6 -12.52,-71.71 -55.19,-148.69 -128.8,-184zm-49.93 -159.25c36.13,0 65.41,29.28 65.41,65.4 0,36.12 -29.28,65.41 -65.41,65.41 -36.12,0 -65.4,-29.29 -65.4,-65.41 0,-36.12 29.28,-65.4 65.4,-65.4z"/>
 </g>
</svg>
