<?xml version="1.0" encoding="UTF-8"?>
<!DOCTYPE svg PUBLIC "-//W3C//DTD SVG 1.1//EN" "http://www.w3.org/Graphics/SVG/1.1/DTD/svg11.dtd">
<!-- Creator: CorelDRAW 2019 (64-Bit) -->
<svg xmlns="http://www.w3.org/2000/svg" xml:space="preserve" width="13.5466mm" height="13.5466mm" version="1.1" style="shape-rendering:geometricPrecision; text-rendering:geometricPrecision; image-rendering:optimizeQuality; fill-rule:evenodd; clip-rule:evenodd"
viewBox="0 0 1354.66 1354.66"
 xmlns:xlink="http://www.w3.org/1999/xlink">
 <defs>
  <style type="text/css">
   <![CDATA[
    .fil1 {fill:#FEFEFE}
    .fil0 {fill:#000D2F}
   ]]>
  </style>
 </defs>
 <g id="Capa_x0020_1">
  <metadata id="CorelCorpID_0Corel-Layer"/>
  <path class="fil0" d="M759.69 709.46c17.3,8.24 136.71,4.35 165.86,4.13 96.99,-0.75 177.91,-36.02 212.51,-132.58 8.02,-22.41 34.99,-115.96 34.08,-136.61l-128.64 3.44c-13.11,57.24 -38.14,151.1 -79.24,192.7 -40.23,40.72 -128.36,67.36 -204.57,68.92z"/>
  <path class="fil1" d="M1043.5 447.84l128.41 -2.73 -17.3 81.09 -23.06 71.23c0.53,12.02 -17.32,52.9 -55.41,80.91 -27.29,20.07 -73.88,30.94 -89.79,29.57 -169.97,1.34 -380.62,5.8 -550.77,5.91 -115.97,0.07 -211.05,-19 -265.99,65.24 -22.02,33.77 -128.67,445.7 -144.19,513.2 133.95,1.88 277.97,14.41 368.48,-92.83 97.4,-115.4 55.44,-212.52 125.93,-224.63 87.24,-14.98 328.18,30.7 524.73,-53.3 106.78,-45.63 195.34,-122.63 237.59,-229 48.15,-121.23 39.87,-278 -33.19,-367.43 -72.2,-88.38 -172.62,-129.92 -327.15,-140.83 -144.37,-10.18 -315.27,-2.24 -462.89,-2.38 -77.4,-0.08 -127.17,24.96 -154.43,78.67 -13.56,26.71 -45.8,148.62 -51.29,183.22 6.01,-0.02 12.03,-0.04 18.05,-0.06 144.97,-0.41 290.02,-0.02 434.99,0.02 226.3,0.06 326.71,-62.71 345.81,-77.2 4.44,13.21 1.39,40.05 -8.53,81.33z"/>
 </g>
</svg>
