<?xml version="1.0" encoding="UTF-8"?>
<!DOCTYPE svg PUBLIC "-//W3C//DTD SVG 1.1//EN" "http://www.w3.org/Graphics/SVG/1.1/DTD/svg11.dtd">
<!-- Creator: CorelDRAW 2019 (64-Bit) -->
<svg xmlns="http://www.w3.org/2000/svg" xml:space="preserve" width="160mm" height="80mm" version="1.1" style="shape-rendering:geometricPrecision; text-rendering:geometricPrecision; image-rendering:optimizeQuality; fill-rule:evenodd; clip-rule:evenodd"
viewBox="0 0 16000 8000"
 xmlns:xlink="http://www.w3.org/1999/xlink">
<defs>
    <style type="text/css">
        <![CDATA[
            .fil0 {fill:#606062}
            .fil2 {fill:url(#my-gradient)}  <!-- Para usar el gradiente -->
            .fil1 {fill:white}
        ]]>
    </style>

    <!-- Definición del gradiente vertical -->
    <linearGradient id="my-gradient" x1="0%" y1="0%" x2="0%" y2="100%">
        <stop offset="0%" style="stop-color:#f0cb28; stop-opacity:1" /> <!-- Color final -->
        <stop offset="50%" style="stop-color:#fff8bb; stop-opacity:1" />  <!-- Color central -->
        <stop offset="100%" style="stop-color:#f7eb7e; stop-opacity:1" /> <!-- Color final -->
    </linearGradient>
</defs>
 <g id="Capa_x0020_1">
  <metadata id="CorelCorpID_0Corel-Layer"/>
  <path class="fil0" d="M-88410.62 15580.3l5358.65 -0.36 8.17 -5265.23c-46.11,59 -47.16,-29.25 -43.7,282.02l0.25 4939.09 -5009.51 -0.07c-363.14,-2.69 -261.02,-0.62 -313.86,44.55z"/>
  <polygon class="fil1" points="4982.13,-11331.59 4982.9,-11331.59 4982.99,-12290.52 5941.83,-12290.52 5941.83,-12291.29 4982.13,-12291.29 "/>
  <path class="fil2" d="M1540.82 1483.09c0,-94.46 -18.13,-183.43 -54.37,-266.91 -36.25,-83.47 -86.23,-156.52 -149.93,-219.12 -63.71,-62.61 -140.05,-112.04 -229.02,-148.29 -88.97,-36.24 -186.17,-54.37 -291.62,-54.37l0 1380.68c105.45,0 202.65,-18.12 291.62,-54.37 88.97,-36.25 165.31,-85.68 229.02,-148.28 63.7,-62.61 113.68,-135.66 149.93,-219.13 36.24,-83.48 54.37,-173.55 54.37,-270.21zm-1120.36 1360.91l0 -2445.02 402.01 0c155.97,0 301.51,28.56 436.61,85.68 135.1,57.11 253.18,134.55 354.23,232.31 101.05,97.75 180.14,212.53 237.25,344.34 57.12,131.81 85.68,272.4 85.68,421.78 0,151.58 -28.56,293.27 -85.68,425.08 -57.11,131.81 -135.65,246.59 -235.6,344.35 -99.95,97.75 -218.03,175.19 -354.23,232.3 -136.2,57.12 -284.48,85.68 -444.85,85.68l0 273.5 -395.42 0zm2171.52 -1021.5l0 626.08 1080.82 0 0 395.42 -1476.24 0 0 -2448.31 1476.24 0 0 395.42 -1080.82 0 0 635.97 925.94 0 0 395.42 -925.94 0zm2626.25 1021.5l0 -932.53 -919.35 -715.06 0 1647.59 -395.42 0 0 -2451.61 1314.77 1021.5 0 -1014.91 395.42 0 0 2445.02 -395.42 0zm1054.45 -6.59c-76.88,0 -148.28,-10.44 -214.18,-31.31 -65.91,-20.87 -134.01,-51.07 -204.3,-90.61l187.82 -349.29c43.94,19.77 86.77,37.34 128.51,52.72 76.89,26.36 154.88,25.26 233.96,-3.29 74.69,-28.56 132.91,-82.38 174.64,-161.47 48.33,-94.46 51.63,-190.02 9.89,-286.68 -30.75,-76.88 -82.38,-135.1 -154.87,-174.64 -70.3,-35.15 -131.26,-79.63 -182.88,-133.46 -51.63,-53.82 -94.47,-112.58 -128.52,-176.29 -34.05,-63.7 -58.21,-131.25 -72.49,-202.65 -14.28,-71.4 -18.12,-143.34 -11.53,-215.83 8.78,-107.65 38.44,-204.85 88.97,-291.63 50.52,-86.77 113.68,-159.26 189.47,-217.48 75.79,-58.21 159.81,-100.5 252.08,-126.86 92.26,-26.36 184.53,-35.15 276.79,-26.36 81.28,6.59 160.37,28.56 237.26,65.9l-181.24 352.58c-17.57,-8.78 -35.7,-14.82 -54.37,-18.12 -18.67,-3.29 -36.8,-6.04 -54.37,-8.24 -76.89,-4.39 -146.63,15.38 -209.24,59.32 -62.61,43.93 -106,103.24 -130.16,177.93 -30.76,76.89 -30.76,154.88 0,233.96 30.75,79.09 84.57,138.4 161.46,177.94 166.96,87.87 284.48,222.97 352.58,405.31 35.15,98.85 49.98,199.35 44.49,301.5 -5.49,102.16 -32.4,199.36 -80.73,291.63 -63.71,120.82 -154.33,216.93 -271.85,288.32 -117.53,71.4 -246.59,107.1 -387.19,107.1zm1904.61 -2441.72l1097.29 2448.31 -438.26 0 -708.46 -1598.16 -705.16 1598.16 -441.56 0 1100.59 -2448.31 95.56 0zm-42.84 2603.18l-388.83 -388.83 388.83 -388.83 388.83 388.83 -388.83 388.83zm3104.05 -154.87l0 -1657.47 -691.98 514.04 -691.99 -514.04 0 1657.47 -395.42 0 0 -2441.72 1087.41 807.31c177.94,-134 358.62,-268.55 542.05,-403.65 183.43,-135.11 365.22,-269.66 545.35,-403.66l0 2441.72 -395.42 0zm1884.84 -2052.89c-114.24,0 -221.88,21.97 -322.93,65.9 -101.05,43.94 -188.92,103.25 -263.61,177.94 -74.69,74.69 -134.01,162.56 -177.94,263.61 -43.94,101.06 -65.91,208.7 -65.91,322.93 0,114.23 21.97,221.87 65.91,322.93 43.93,101.05 103.25,188.92 177.94,263.61 74.69,74.69 162.56,133.45 263.61,176.29 101.05,42.84 208.69,64.26 322.93,64.26 114.23,0 221.32,-21.42 321.28,-64.26 99.95,-42.84 187.82,-101.6 263.61,-176.29 75.79,-74.69 135.65,-162.56 179.59,-263.61 43.93,-101.06 65.9,-208.7 65.9,-322.93 0,-114.23 -21.97,-221.87 -65.9,-322.93 -43.94,-101.05 -103.8,-188.92 -179.59,-263.61 -75.79,-74.69 -163.66,-134 -263.61,-177.94 -99.96,-43.93 -207.05,-65.9 -321.28,-65.9zm0 2052.89c-169.16,0 -327.87,-31.86 -476.16,-95.56 -148.28,-63.71 -277.89,-151.03 -388.83,-261.97 -110.93,-110.94 -198.8,-240.55 -263.61,-388.83 -64.8,-148.28 -97.21,-307 -97.21,-476.15 0,-169.15 32.41,-327.87 97.21,-476.15 64.81,-148.28 152.68,-277.89 263.61,-388.83 110.94,-110.94 240.55,-198.81 388.83,-263.62 148.29,-64.8 307,-97.2 476.16,-97.2 166.95,0 325.12,32.4 474.5,97.2 149.38,64.81 279.54,152.68 390.48,263.62 110.94,110.94 198.81,240.55 263.61,388.83 64.81,148.28 97.21,307 97.21,476.15 0,169.15 -32.4,327.87 -97.21,476.15 -64.8,148.28 -152.67,277.89 -263.61,388.83 -110.94,110.94 -241.1,198.26 -390.48,261.97 -149.38,63.7 -307.55,95.56 -474.5,95.56zm1654.17 -6.59c-76.88,0 -148.28,-10.44 -214.18,-31.31 -65.91,-20.87 -134.01,-51.07 -204.3,-90.61l187.82 -349.29c43.94,19.77 86.77,37.34 128.51,52.72 76.89,26.36 154.88,25.26 233.96,-3.29 74.69,-28.56 132.91,-82.38 174.64,-161.47 48.33,-94.46 51.63,-190.02 9.89,-286.68 -30.75,-76.88 -82.38,-135.1 -154.87,-174.64 -70.3,-35.15 -131.26,-79.63 -182.88,-133.46 -51.63,-53.82 -94.47,-112.58 -128.52,-176.29 -34.05,-63.7 -58.21,-131.25 -72.49,-202.65 -14.28,-71.4 -18.12,-143.34 -11.53,-215.83 8.78,-107.65 38.44,-204.85 88.97,-291.63 50.52,-86.77 113.68,-159.26 189.47,-217.48 75.79,-58.21 159.81,-100.5 252.08,-126.86 92.26,-26.36 184.53,-35.15 276.79,-26.36 81.28,6.59 160.37,28.56 237.26,65.9l-181.24 352.58c-17.57,-8.78 -35.7,-14.82 -54.37,-18.12 -18.67,-3.29 -36.8,-6.04 -54.37,-8.24 -76.89,-4.39 -146.63,15.38 -209.24,59.32 -62.61,43.93 -106,103.24 -130.16,177.93 -30.76,76.89 -30.76,154.88 0,233.96 30.75,79.09 84.57,138.4 161.46,177.94 166.96,87.87 284.48,222.97 352.58,405.31 35.15,98.85 49.98,199.35 44.49,301.5 -5.49,102.16 -32.4,199.36 -80.73,291.63 -63.71,120.82 -154.33,216.93 -271.85,288.32 -117.53,71.4 -246.59,107.1 -387.19,107.1zm-8879.92 1370.9l0 332.41 573.84 0 0 209.94 -783.79 0 0 -1299.9 783.79 0 0 209.95 -573.84 0 0 337.66 491.61 0 0 209.94 -491.61 0zm1394.37 542.35l0 -495.11 -488.11 -379.65 0 874.76 -209.95 0 0 -1301.65 698.06 542.36 0 -538.86 209.95 0 0 1298.15 -209.95 0zm1144.19 0l0 -1088.2 -265.92 0 0 -209.95 743.55 0 0 209.95 -267.68 0 0 1088.2 -209.95 0zm1170.44 0c-79.31,0 -153.38,-14.87 -222.19,-44.61 -68.82,-29.74 -129.18,-70.56 -181.08,-122.47 -51.9,-51.9 -92.72,-112.26 -122.47,-181.07 -29.74,-68.82 -44.61,-142.88 -44.61,-222.19l0 -727.81 209.95 0 0 727.81c0,50.15 9.33,97.1 27.99,140.84 18.66,43.73 44.32,81.93 76.98,114.59 32.66,32.66 70.85,58.32 114.59,76.98 43.74,18.66 90.69,27.99 140.84,27.99 50.15,0 97.1,-9.33 140.84,-27.99 43.73,-18.66 81.93,-44.32 114.59,-76.98 32.66,-32.66 58.61,-70.86 77.85,-114.59 19.25,-43.74 28.87,-90.69 28.87,-140.84l0 -727.81 209.94 0 0 727.81c0,79.31 -15.16,153.37 -45.48,222.19 -30.33,68.81 -71.15,129.17 -122.47,181.07 -51.32,51.91 -111.97,92.73 -181.95,122.47 -69.98,29.74 -144.05,44.61 -222.19,44.61zm-7926.11 2858.95l0 -876 -863.61 -671.69 0 1547.69 -371.45 0 0 -2302.97 1235.06 959.57 0 -953.38 371.45 0 0 2296.78 -371.45 0zm1114.34 -959.57l0 588.12 1015.28 0 0 371.45 -1386.73 0 0 -2299.87 1386.73 0 0 371.44 -1015.28 0 0 597.41 869.8 0 0 371.45 -869.8 0zm3411.11 -188.82c0,158.9 -30.44,307.99 -91.31,447.28 -60.88,139.29 -143.42,261.05 -247.63,365.26 -104.21,104.21 -226.48,186.24 -366.81,246.08 -140.32,59.84 -288.9,89.77 -445.73,89.77 -158.9,0 -308.51,-29.93 -448.83,-89.77 -140.33,-59.84 -262.59,-141.87 -366.8,-246.08 -104.21,-104.21 -186.24,-225.97 -246.09,-365.26 -59.84,-139.29 -89.76,-288.38 -89.76,-447.28 0,-158.9 29.92,-307.99 89.76,-447.28 59.85,-139.29 141.88,-261.05 246.09,-365.26 104.21,-104.21 226.47,-186.75 366.8,-247.63 140.32,-60.87 289.93,-91.31 448.83,-91.31 119.69,0 234.22,17.54 343.59,52.62 109.37,35.08 209.97,84.61 301.8,148.58 91.83,63.97 173.34,139.81 244.53,227.51 71.19,87.7 127.43,184.17 168.7,289.42l-414.78 0c-70.16,-105.25 -161.48,-189.34 -273.94,-252.28 -112.47,-62.94 -235.77,-94.41 -369.9,-94.41 -107.31,0 -208.42,20.64 -303.35,61.91 -94.92,41.27 -177.47,96.99 -247.63,167.15 -70.16,70.16 -125.88,152.71 -167.15,247.63 -41.27,94.93 -61.91,196.04 -61.91,303.35 0,107.31 20.64,208.42 61.91,303.35 41.27,94.92 96.99,177.47 167.15,247.63 70.16,70.16 152.71,125.36 247.63,165.6 94.93,40.24 196.04,60.36 303.35,60.36 92.86,0 180.05,-14.44 261.56,-43.33 81.51,-28.89 155.28,-69.65 221.32,-122.27 66.03,-52.62 122.27,-115.05 168.7,-187.27 46.43,-72.23 80.99,-151.68 103.69,-238.35l-940.99 0 0 -371.44 1337.2 0 0 185.72zm1368.16 -780.04c-107.31,0 -208.42,20.64 -303.35,61.91 -94.92,41.27 -177.47,96.99 -247.63,167.15 -70.16,70.16 -125.88,152.71 -167.15,247.63 -41.27,94.93 -61.91,196.04 -61.91,303.35 0,107.31 20.64,208.42 61.91,303.35 41.27,94.92 96.99,177.47 167.15,247.63 70.16,70.16 152.71,125.36 247.63,165.6 94.93,40.24 196.04,60.36 303.35,60.36 107.31,0 207.91,-20.12 301.8,-60.36 93.89,-40.24 176.44,-95.44 247.63,-165.6 71.19,-70.16 127.43,-152.71 168.7,-247.63 41.27,-94.93 61.9,-196.04 61.9,-303.35 0,-107.31 -20.63,-208.42 -61.9,-303.35 -41.27,-94.92 -97.51,-177.47 -168.7,-247.63 -71.19,-70.16 -153.74,-125.88 -247.63,-167.15 -93.89,-41.27 -194.49,-61.91 -301.8,-61.91zm0 1928.43c-158.9,0 -307.99,-29.93 -447.28,-89.77 -139.3,-59.84 -261.05,-141.87 -365.26,-246.08 -104.21,-104.21 -186.75,-225.97 -247.63,-365.26 -60.87,-139.29 -91.31,-288.38 -91.31,-447.28 0,-158.9 30.44,-307.99 91.31,-447.28 60.88,-139.29 143.42,-261.05 247.63,-365.26 104.21,-104.21 225.96,-186.75 365.26,-247.63 139.29,-60.87 288.38,-91.31 447.28,-91.31 156.83,0 305.41,30.44 445.73,91.31 140.33,60.88 262.6,143.42 366.81,247.63 104.21,104.21 186.75,225.97 247.63,365.26 60.87,139.29 91.31,288.38 91.31,447.28 0,158.9 -30.44,307.99 -91.31,447.28 -60.88,139.29 -143.42,261.05 -247.63,365.26 -104.21,104.21 -226.48,186.24 -366.81,246.08 -140.32,59.84 -288.9,89.77 -445.73,89.77zm3646.36 -934.81c-24.77,134.13 -71.2,257.95 -139.29,371.45 -68.1,113.49 -151.68,212.03 -250.73,295.61 -99.05,83.57 -211.52,149.09 -337.4,196.55 -125.88,47.46 -258.98,71.2 -399.3,71.2 -158.9,0 -307.99,-29.93 -447.28,-89.77 -139.3,-59.84 -261.05,-141.87 -365.26,-246.08 -104.21,-104.21 -186.75,-225.97 -247.63,-365.26 -60.87,-139.29 -91.31,-288.38 -91.31,-447.28 0,-158.9 30.44,-307.99 91.31,-447.28 60.88,-139.29 143.42,-261.05 247.63,-365.26 104.21,-104.21 225.96,-186.75 365.26,-247.63 139.29,-60.87 288.38,-91.31 447.28,-91.31 136.2,0 266.2,22.7 390.02,68.1 123.81,45.4 235.25,108.34 334.3,188.82 99.05,80.48 182.63,175.92 250.72,286.32 68.1,110.4 116.6,229.57 145.49,357.51l-383.83 0c-24.76,-76.35 -61.39,-147.03 -109.89,-212.03 -48.49,-65 -104.72,-120.72 -168.69,-167.15 -63.98,-46.43 -134.65,-83.06 -212.04,-109.89 -77.38,-26.82 -159.41,-40.24 -246.08,-40.24 -107.31,0 -208.42,20.64 -303.35,61.91 -94.92,41.27 -177.47,96.99 -247.63,167.15 -70.16,70.16 -125.88,152.71 -167.15,247.63 -41.27,94.93 -61.91,196.04 -61.91,303.35 0,107.31 20.64,208.42 61.91,303.35 41.27,94.92 96.99,177.47 167.15,247.63 70.16,70.16 152.71,125.36 247.63,165.6 94.93,40.24 196.04,60.36 303.35,60.36 88.73,0 173.34,-13.93 253.82,-41.79 80.48,-27.86 153.22,-66.55 218.22,-116.07 65.01,-49.53 121.24,-108.86 168.7,-177.99 47.47,-69.13 82.55,-144.97 105.25,-227.51l380.73 0zm256.91 934.81l0 -2299.87 371.45 0 0 2299.87 -371.45 0zm1770.56 -1928.43c-107.31,0 -208.42,20.64 -303.35,61.91 -94.92,41.27 -177.47,96.99 -247.63,167.15 -70.16,70.16 -125.88,152.71 -167.15,247.63 -41.27,94.93 -61.91,196.04 -61.91,303.35 0,107.31 20.64,208.42 61.91,303.35 41.27,94.92 96.99,177.47 167.15,247.63 70.16,70.16 152.71,125.36 247.63,165.6 94.93,40.24 196.04,60.36 303.35,60.36 107.31,0 207.91,-20.12 301.8,-60.36 93.89,-40.24 176.44,-95.44 247.63,-165.6 71.19,-70.16 127.43,-152.71 168.7,-247.63 41.27,-94.93 61.9,-196.04 61.9,-303.35 0,-107.31 -20.63,-208.42 -61.9,-303.35 -41.27,-94.92 -97.51,-177.47 -168.7,-247.63 -71.19,-70.16 -153.74,-125.88 -247.63,-167.15 -93.89,-41.27 -194.49,-61.91 -301.8,-61.91zm0 1928.43c-158.9,0 -307.99,-29.93 -447.28,-89.77 -139.3,-59.84 -261.05,-141.87 -365.26,-246.08 -104.21,-104.21 -186.75,-225.97 -247.63,-365.26 -60.87,-139.29 -91.31,-288.38 -91.31,-447.28 0,-158.9 30.44,-307.99 91.31,-447.28 60.88,-139.29 143.42,-261.05 247.63,-365.26 104.21,-104.21 225.96,-186.75 365.26,-247.63 139.29,-60.87 288.38,-91.31 447.28,-91.31 156.83,0 305.41,30.44 445.73,91.31 140.33,60.88 262.6,143.42 366.81,247.63 104.21,104.21 186.75,225.97 247.63,365.26 60.87,139.29 91.31,288.38 91.31,447.28 0,158.9 -30.44,307.99 -91.31,447.28 -60.88,139.29 -143.42,261.05 -247.63,365.26 -104.21,104.21 -226.48,186.24 -366.81,246.08 -140.32,59.84 -288.9,89.77 -445.73,89.77zm1553.88 -6.19c-72.22,0 -139.29,-9.81 -201.2,-29.41 -61.9,-19.6 -125.88,-47.98 -191.91,-85.12l176.44 -328.11c41.27,18.57 81.51,35.08 120.72,49.52 72.22,24.77 145.48,23.73 219.77,-3.09 70.16,-26.83 124.85,-77.39 164.05,-151.68 45.4,-88.73 48.5,-178.5 9.29,-269.29 -28.89,-72.23 -77.38,-126.92 -145.48,-164.06 -66.04,-33.02 -123.3,-74.81 -171.8,-125.36 -48.49,-50.56 -88.73,-105.76 -120.72,-165.61 -31.98,-59.84 -54.68,-123.3 -68.09,-190.36 -13.42,-67.07 -17.03,-134.65 -10.84,-202.75 8.26,-101.11 36.11,-192.43 83.58,-273.94 47.46,-81.51 106.79,-149.61 177.98,-204.3 71.19,-54.68 150.13,-94.4 236.8,-119.17 86.67,-24.76 173.34,-33.01 260.01,-24.76 76.35,6.19 150.64,26.83 222.87,61.91l-170.25 331.2c-16.51,-8.25 -33.53,-13.93 -51.07,-17.02 -17.54,-3.1 -34.57,-5.68 -51.08,-7.74 -72.22,-4.13 -137.74,14.44 -196.55,55.72 -58.82,41.27 -99.57,96.99 -122.27,167.15 -28.89,72.22 -28.89,145.48 0,219.77 28.89,74.29 79.45,130.01 151.67,167.15 156.84,82.54 267.24,209.45 331.21,380.73 33.02,92.86 46.94,187.27 41.79,283.23 -5.16,95.96 -30.44,187.27 -75.84,273.94 -59.84,113.5 -144.97,203.78 -255.37,270.85 -110.4,67.06 -231.64,100.6 -363.71,100.6zm-11124.42 -3620.84l-3267.5 0 0 217.41 3267.5 0 0 -217.41zm11857.83 0l-3267.49 0 0 217.41 3267.49 0 0 -217.41z"/>
 </g>
</svg>
